<svg xmlns="http://www.w3.org/2000/svg" viewBox="0 0 64 64"><g data-name="car navigation"><path d="M11 45h9v5.73A2.27 2.27 0 0 1 17.73 53h-4.46A2.27 2.27 0 0 1 11 50.73V45zM55.93 31.69a3.89 3.89 0 0 0-.81-1.79L52 26l-3.63-10.9a6 6 0 0 0-5.69-4.1H21.25a6 6 0 0 0-5.69 4.1L11.93 26l-3.12 3.9A3.89 3.89 0 0 0 8 31.69h.07a4.4 4.4 0 0 0-.07.71V42a3 3 0 0 0 3 3h14l1-1h9.38a11.86 11.86 0 0 1-.38-3v-1h-8.18a1 1 0 0 1-1-.8l-.6-3a1 1 0 0 1 1-1.2H36.6a12 12 0 0 1 19.33-2v-.6a4.4 4.4 0 0 0-.07-.73zM22 38a2 2 0 0 1-2 2h-6a2 2 0 0 1-2-2v-2a2 2 0 0 1 2-2h1l5.25.78a2 2 0 0 1 1.75 2zm25.14-9.9A3 3 0 0 1 45 29H19a3 3 0 0 1-2.38-1.17 2.81 2.81 0 0 1-.32-2.65l3.27-8.87A2 2 0 0 1 21.44 15h21.12a2 2 0 0 1 1.87 1.31l3.26 8.84a2.83 2.83 0 0 1-.55 2.95z"/><rect x="51" y="21" width="8" height="5" rx="2.5" ry="2.5"/><rect x="5" y="21" width="8" height="5" rx="2.5" ry="2.5"/><path d="M47 54a13 13 0 0 1-13-13v-1.09a13.23 13.23 0 0 1 1.69-5.41A13 13 0 1 1 47 54zm0-24a11 11 0 0 0-9.53 5.5A10.73 10.73 0 0 0 36 40.08V41a11 11 0 1 0 11-11z"/><path d="m48.85 49.55-3.46-6.44-6.44-3.46L53.1 35.4l-4.25 14.15z"/></g></svg>