<svg xmlns="http://www.w3.org/2000/svg" xml:space="preserve" width="2048" height="2048" style="shape-rendering:geometricPrecision;text-rendering:geometricPrecision;image-rendering:optimizeQuality;fill-rule:evenodd;clip-rule:evenodd"><path style="fill:#f93" d="M255.999 562.744h1536V870.33h-1536z"/><path style="fill:#eee" d="M255.999 870.329h1536v307.586h-1536z"/><path style="fill:#128807" d="M255.999 1177.92h1536v307.586h-1536z"/><path d="M1024 913.684c-60.921 0-110.391 49.32-110.391 110.242 0 60.921 49.47 110.391 110.391 110.391 60.921 0 110.391-49.47 110.391-110.391-.074-60.921-49.47-110.242-110.391-110.242zm17.544 12.176c2.791.586 5.433 1.033 8.15 1.917l-17.034 52.837-4.74 27.3a15.762 15.762 0 0 0-3.42-.424l2.44-27.612-2.791-55.488c2.94 0 5.72.15 8.51.447 0 .15-.148.15-.148.3 0 2.64 2.056 4.835 4.56 4.835 2.344 0 4.25-1.907 4.473-4.112zm-17.618-1.47-2.78 55.488 2.63 27.612c-1.236.02-2.44.19-3.6.467l-4.687-27.343-17.034-52.837c2.653-.884 5.295-1.331 8.075-1.917.298 2.205 2.205 3.963 4.474 3.963 2.577 0 4.634-2.046 4.634-4.687v-.448c2.706-.299 5.507-.299 8.288-.299zm26.055 3.387c2.652.874 5.295 1.609 7.937 2.642-.15.437-.374 1.023-.374 1.609 0 2.492 2.057 4.548 4.623 4.548 1.758 0 3.526-1.172 4.187-2.79 2.492 1.181 4.91 2.502 7.414 3.972L1043.6 984.14l-11.643 25.331a15.771 15.771 0 0 0-3.334-1.373l9.619-26.163 11.739-54.157zm-17.364 82.077 16.043-22.637 25.32-49.32c2.28 1.321 4.634 2.79 6.979 4.261-.662.874-1.034 1.758-1.034 2.93 0 2.503 2.055 4.558 4.634 4.558 1.46 0 2.78-.586 3.589-1.917a120.774 120.774 0 0 1 6.168 5.731l-41.097 37.134-17.768 21.433a16.463 16.463 0 0 0-2.834-2.173zm3.366 2.695 21.337-17.694 37.22-41.246c1.906 2.056 3.814 3.962 5.571 6.157-1.097.885-1.608 2.205-1.608 3.527 0 2.502 2.045 4.559 4.474 4.559 1.097 0 1.906-.3 2.716-.885 1.694 2.343 3.153 4.699 4.474 7.042l-49.32 25.246-22.67 16.15a16.737 16.737 0 0 0-2.194-2.856zm2.579 3.515 25.15-11.526 46.604-30.38c1.545 2.642 2.791 5.433 4.037 7.776-1.545.735-2.79 2.503-2.79 4.41 0 2.492 2.056 4.549 4.484 4.549.725 0 1.246-.15 1.757-.437.885 2.642 1.683 5.134 2.345 7.776l-54.232 11.45-25.992 9.621a15.757 15.757 0 0 0-1.363-3.239zm1.555 3.963 27.335-4.623 52.846-16.873c.66 2.343 1.32 5.283 1.832 7.925-2.27.287-3.963 2.055-3.963 4.549 0 2.492 2.13 4.548 4.623 4.548h.447c.289 2.642.289 5.582.289 8.224l-55.34-2.642-27.61 2.428a16.863 16.863 0 0 0-.459-3.536zm.459 4.293 27.61 2.684 55.34-2.94c0 2.94 0 5.73-.289 8.373h-.447c-2.492 0-4.623 2.194-4.623 4.548 0 2.344 1.694 4.113 3.888 4.549a128.59 128.59 0 0 1-1.757 8.075l-18.866-6.019-33.98-11.015-27.356-4.623a17.08 17.08 0 0 0 .48-3.632zm-.672 4.346 26.013 9.64 54.232 11.6c-.662 2.643-1.46 5.434-2.493 7.777-.15 0-.437-.149-.586-.149h-1.023c-2.577 0-4.634 1.917-4.634 4.56 0 .723.15 1.17.448 1.757.213.734.66 1.32 1.246 1.757.149 0 .223.15.363.15.148.149.297.298.446.298.076 0 .214.138.288.288a86.038 86.038 0 0 1-3.888 7.34l-46.53-30.094h-.074l-25.235-11.558a16.788 16.788 0 0 0 1.426-3.366zm-1.747 3.909 11.974 8.373 10.716 7.638 49.32 25.246c-1.47 2.492-2.929 4.986-4.548 7.19a5.3 5.3 0 0 0-2.642-.735c-2.568 0-4.549 1.907-4.549 4.41 0 1.46.586 2.791 1.683 3.516-1.832 2.055-3.665 4.112-5.57 6.029l-37.221-41.107-21.315-17.726c.82-.863 1.534-1.811 2.152-2.834zm-2.674 3.345 17.736 21.476 41.097 37.134c-1.907 2.056-3.813 3.664-5.944 5.433-.884-.736-1.831-1.034-2.865-1.034-2.493 0-4.548 2.206-4.548 4.56 0 .872.148 1.458.361 2.045-2.418 1.47-4.91 3.089-7.34 4.697l-25.32-49.32-16.053-22.775a16.482 16.482 0 0 0 2.876-2.216zm-3.526 2.6 11.569 25.182 30.168 46.678c-2.43 1.322-4.848 2.642-7.34 3.814-.661-1.757-2.28-2.78-4.112-2.78-2.567 0-4.623 2.194-4.623 4.548 0 .586.149 1.172.299 1.758-2.642.884-5.22 1.757-7.937 2.354l-11.74-54.316-9.65-25.854a16.066 16.066 0 0 0 3.366-1.385zm-4.037 1.555 4.74 27.301 17.034 52.848c-2.717.724-5.433 1.458-8.15 1.757-.361-2.056-2.28-3.814-4.474-3.814-2.64 0-4.559 2.057-4.559 4.4v.586c-2.78.297-5.571.437-8.362.437l2.79-55.34-2.576-27.75a17.053 17.053 0 0 0 3.557-.425zm-4.272.425-2.503 27.75 2.78 55.34c-2.929 0-5.645-.14-8.51-.437v-.586c0-2.344-2.057-4.4-4.624-4.4-2.206 0-4.112 1.758-4.475 3.814a72.84 72.84 0 0 1-7.925-1.758l17.023-52.847 4.645-27.365c1.15.298 2.354.457 3.589.49zm-7.605-2.097a16.39 16.39 0 0 0 3.324 1.416l-9.674 25.94-11.6 54.315c-2.641-.597-5.284-1.47-8-2.354.214-.586.373-1.172.373-1.758 0-2.354-2.056-4.548-4.485-4.548-1.906 0-3.525 1.171-4.325 2.78-2.428-1.172-4.92-2.492-7.34-3.814l30.158-46.678 11.569-25.3zm-3.366-2.494c.83.8 1.747 1.513 2.727 2.12l-16.064 22.733-25.246 49.47c-2.418-1.61-4.848-3.08-7.117-4.698.512-.587.874-1.46.874-2.493 0-2.642-2.056-4.697-4.474-4.697-1.544 0-2.79.734-3.525 1.768-2.205-1.918-4.262-3.526-6.168-5.582l41.256-37.134 17.737-21.487zm-2.844-53.975 9.64 26.205c-1.182.35-2.333.83-3.388 1.416l-11.611-25.416-30.157-46.391a92.008 92.008 0 0 1 7.265-3.963c.736 1.768 2.343 2.94 4.25 2.94 2.578 0 4.55-2.055 4.55-4.4 0-.734-.14-1.469-.29-1.906 2.569-1.034 5.36-1.768 8.002-2.642l11.739 54.157zm-1.588 46.732a16.88 16.88 0 0 0 1.384 3.28l-25.405 11.644-46.54 30.093c-1.396-2.344-2.492-4.698-3.74-7.34 1.758-.585 2.941-2.204 2.941-4.112 0-2.64-1.992-4.697-4.634-4.697-.66 0-1.31.149-1.907.448a161.94 161.94 0 0 1-2.567-8.076l54.316-11.6 26.152-9.64zm-20.942 19.771 22.668-15.894a16.08 16.08 0 0 0 2.184 2.844l-21.4 17.748-37.22 41.107c-2.056-1.917-3.889-4.112-5.72-6.029 1.033-.874 1.767-2.194 1.767-3.665 0-2.502-2.055-4.4-4.559-4.4-1.023 0-1.98.289-2.716.725-1.609-2.194-3.078-4.549-4.474-7.04l49.47-25.396zm12.037-61.22 16.117 22.701a16.491 16.491 0 0 0-2.78 2.152l-17.737-21.476-41.256-37.134c2.055-1.906 4.037-3.814 6.168-5.582.735 1.034 2.055 1.768 3.526 1.768 2.566 0 4.622-2.055 4.622-4.697 0-1.033-.437-1.906-.959-2.791 2.355-1.32 4.635-2.94 7.053-4.261l25.246 49.32zm-8.66 7.638 21.464 17.737a16.6 16.6 0 0 0-2.184 2.844l-22.657-16.181-49.47-25.246c1.396-2.343 2.94-4.699 4.548-7.19.661.734 1.768 1.033 2.717 1.033 2.43 0 4.548-2.057 4.548-4.56 0-1.321-.724-2.641-1.683-3.664 1.683-2.057 3.516-3.963 5.507-6.02l37.21 41.247zm-6.456 9.683 25.342 11.558a16.112 16.112 0 0 0-1.342 3.218l-26.13-9.631-54.317-11.6c.81-2.79 1.693-5.433 2.567-7.925.448.149 1.183.298 1.694.298 2.567 0 4.549-2.057 4.549-4.56 0-1.906-1.172-3.514-2.717-4.1a90.777 90.777 0 0 1 3.814-7.638l46.54 30.38zm-3.676 10.866 27.495 4.623a17.085 17.085 0 0 0-.469 3.558l-27.76-2.45-55.414 2.642c0-2.642.224-5.582.373-8.224h.799c2.503 0 4.559-1.906 4.559-4.548 0-2.494-1.843-4.262-4.26-4.549.585-2.642 1.097-5.582 1.831-7.925l52.846 16.873zm-.734 11.6 27.76-2.705c.032 1.257.192 2.482.48 3.653l-27.506 4.623-52.846 17.034c-.734-2.642-1.246-5.284-1.832-8.224 2.28-.287 3.963-2.056 3.963-4.4 0-2.492-2.056-4.548-4.548-4.548h-.512c-.149-2.642-.373-5.433-.373-8.373l55.414 2.94z" style="fill:#000084"/><path style="fill:none" d="M0 0h2048v2048H0z"/></svg>