<svg xmlns="http://www.w3.org/2000/svg" viewBox="0 0 64 64" xml:space="preserve" style="fill-rule:evenodd;clip-rule:evenodd;stroke-linecap:round;stroke-linejoin:round;stroke-miterlimit:2"><path d="M49.972 21.334c.003-2.264.011-4.339.028-5.976a2.574 2.574 0 0 0-1.082-2.109 2.596 2.596 0 0 0-2.344-.351M46.325 13.232l-.002.001M29.336 12.699a17.589 17.589 0 0 1-11.907.2l-.003-.001A2.596 2.596 0 0 0 14 15.358v18.717M31.455 52.242l11.83-6.799" style="fill:none;stroke:#222a33;stroke-width:2px"/><path d="M54 14.908a6.172 6.172 0 0 0-8.146-5.848l-.002.001a14.905 14.905 0 0 1-9.999-.166l-2.623-.984a3.507 3.507 0 0 0-2.46 0l-2.623.984a14.905 14.905 0 0 1-9.999.166l-.002-.001A6.172 6.172 0 0 0 10 14.908V34.14a17.257 17.257 0 0 0 8.263 14.728l11.35 6.93a3.504 3.504 0 0 0 3.573.048l12.156-6.986A17.256 17.256 0 0 0 54 33.898v-18.99z" style="fill:none;stroke:#222a33;stroke-width:2px;stroke-linecap:butt"/><circle cx="32" cy="26" r="5" style="fill:none;stroke:#222a33;stroke-width:2px"/><path d="M21.169 40.5C23.64 36.554 27.574 34 32 34c4.426 0 8.36 2.554 10.831 6.5" style="fill:none;stroke:#222a33;stroke-width:2px"/></svg>