<svg xmlns="http://www.w3.org/2000/svg" viewBox="0 0 512 512" style="enable-background:new 0 0 512 512" xml:space="preserve"><style>.st0{fill:#e9b12d}.st15{fill:#e39123}.st177{fill:#d3b1a5}.st178{fill:#be988d}.st184{fill:none;stroke:#be988d;stroke-width:10;stroke-linecap:round;stroke-miterlimit:10}</style><g id="BULINE"><circle id="XMLID_2789_" cx="256" cy="256" r="256" style="fill:#5493a0"/></g><g id="Icons"><g id="XMLID_2790_"><path id="XMLID_3141_" d="M474.1 132.5c0 52.1-18.1 100.1-48.5 137.8-9.5 11.8-20.2 22.6-31.8 32.2-20.2 16.6-43.4 29.7-68.6 38.3-8.8 3-17.8 5.5-27.1 7.4-5.2 1.1-10.5 1.9-15.8 2.6-8.2 1.1-16.6 1.6-25.1 1.8h-9.6c-7.6-.2-15.1-.8-22.5-1.8-.3 0-.5-.1-.8-.1-5.4-.7-10.7-1.7-16-2.8-6.4-1.4-12.8-3-19-4.9-2.1-.6-4.3-1.3-6.4-2.1-9.6-3.3-18.9-7.2-27.8-11.7-15.3-7.7-29.7-17.2-42.7-28.2-10.9-9.2-21-19.5-29.9-30.6-30.5-37.8-48.6-85.7-48.6-137.9v-4C78.1 51.7 161 0 256 0c92 0 172.7 48.5 217.8 121.4.2 3.7.3 7.4.3 11.1z" style="fill:#5fa4ac"/><g id="XMLID_2791_"><path id="XMLID_3083_" d="M427 286.4v160.1c-10.7 9.6-22.2 18.4-34.5 26.1-18.5 11.7-38.7 21.1-60.1 27.8-24.1 7.5-49.8 11.6-76.4 11.6-28.5 0-56-4.7-81.6-13.3-5.9-2-11.8-4.2-17.5-6.6-.6-.3-1.3-.5-1.9-.8-14.1-6.1-27.6-13.4-40.3-21.8-.1-.1-.2-.2-.4-.2-11.8-7.9-23-16.7-33.3-26.4V286.4c0-3.2.2-6.4.5-9.6l.3-2.4c.2-1.4.4-2.7.6-4.1.3-1.7.6-3.5 1-5.1.3-1.5.7-3 1.2-4.5.4-1.5.9-3 1.4-4.4.5-1.5 1-2.9 1.6-4.3.4-1.1.9-2.1 1.3-3.2.5-1 .9-2.1 1.4-3.1.8-1.5 1.5-3.1 2.3-4.6.6-1 1.1-2 1.7-2.9.9-1.5 1.8-2.9 2.7-4.3.8-1.2 1.7-2.5 2.6-3.7.9-1.2 1.8-2.4 2.8-3.5 1.4-1.7 2.9-3.4 4.5-5 1-1.1 2.1-2.1 3.2-3.2 1.6-1.6 3.3-3.1 5-4.5 1.2-1 2.3-1.9 3.5-2.8 1.2-.9 2.4-1.8 3.7-2.6 1.1-.7 2.1-1.4 3.2-2.1 2.8-1.7 5.6-3.3 8.6-4.7 1-.5 2.1-1 3.1-1.4 1-.5 2.1-.9 3.2-1.3 1.4-.6 2.9-1.1 4.3-1.6 1.5-.5 2.9-.9 4.4-1.4l4.5-1.2c3-.7 6.1-1.3 9.2-1.6l2.4-.3c3.1-.3 6.3-.5 9.6-.5H333c17.7 0 34.3 4.9 48.4 13.4 22.9 13.8 39.5 37.1 44.2 64.5.9 5.1 1.4 10.5 1.4 16z" style="fill:#1b305c"/><path id="XMLID_2969_" d="M248.9 192.4c-25.8 0-49.1 10.4-66.1 27.2-10.9 10.8-19.2 24.2-23.8 39.2 0 .1-.1.2-.1.3-.2.8-.5 1.6-.7 2.4-1.7 6.2-2.8 12.6-3.2 19.2-.1 1.9-.2 3.8-.2 5.6v204.9c-14.1-6.1-27.6-13.4-40.3-21.8-.1-.1-.2-.2-.4-.2-11.8-7.9-23-16.7-33.3-26.4V286.4c0-3.2.2-6.4.5-9.6l.3-2.4c.2-1.4.4-2.7.6-4.1.3-1.7.6-3.4 1-5.1.3-1.5.7-3 1.2-4.5.4-1.5.9-3 1.4-4.4.5-1.5 1-2.9 1.6-4.3.4-1.1.9-2.1 1.3-3.2.5-1 .9-2.1 1.4-3.1.8-1.5 1.5-3.1 2.3-4.6.6-1 1.1-2 1.7-2.9.9-1.5 1.8-2.9 2.7-4.3.8-1.2 1.7-2.5 2.6-3.7.9-1.2 1.8-2.4 2.8-3.5 1.5-1.7 2.9-3.4 4.5-5 1-1.1 2.1-2.1 3.2-3.2 1.6-1.6 3.3-3 5-4.5 1.2-.9 2.3-1.9 3.5-2.8 1.2-.9 2.4-1.8 3.7-2.6 1.1-.7 2.1-1.4 3.2-2.1 2.8-1.7 5.6-3.3 8.6-4.7 1-.5 2.1-1 3.1-1.4 1-.5 2.1-.9 3.2-1.3 1.4-.5 2.9-1.1 4.3-1.6 1.5-.5 2.9-.9 4.4-1.4l4.5-1.2c3-.7 6.1-1.2 9.2-1.6l2.4-.3c3.1-.3 6.4-.5 9.6-.5h74.3z" style="fill:#172843"/><path id="XMLID_2999_" d="M392.5 389.6v83c-18.5 11.7-38.7 21.1-60.1 27.8-24.1 7.5-49.8 11.6-76.4 11.6-28.5 0-56-4.7-81.6-13.3-5.9-2-11.8-4.2-17.5-6.6-.6-.3-1.3-.5-1.9-.8-14.1-6.1-27.6-13.4-40.3-21.8-.1-.1-.2-.2-.4-.2v-79.6c0-15.2 7-28.8 17.9-37.8 6.4-5.3 14.2-8.9 22.8-10.3 2.6-.4 5.4-.7 8.1-.7h180.6c.8 0 1.7 0 2.5.1.3 0 .6 0 .9.1h.7c.4 0 .7.1 1.1.1.3 0 .6.1.9.1.5.1 1.1.2 1.6.2.3 0 .7.1 1 .2.4.1.8.1 1.2.2.3.1.6.1.9.2.1 0 .2 0 .2.1l1.2.3c.2 0 .4.1.6.1.4.1.7.2 1.1.3.2.1.4.1.5.2.8.3 1.7.5 2.5.8.3.1.7.2 1 .4.8.3 1.6.6 2.3 1 .3.1.6.2.8.4.1 0 .2.1.3.1l1.8.9h.1c.1 0 .2.1.3.2.1 0 .2.1.3.2.1.1.3.2.4.2.7.4 1.5.9 2.2 1.3.6.4 1.3.9 1.9 1.3.6.4 1.2.9 1.8 1.4l.3.3c.2.2.4.3.6.5.3.3.7.5 1 .8.2.2.4.3.6.5.4.3.7.7 1.1 1l.6.6c.5.5 1 1 1.5 1.6.5.5 1 1.1 1.5 1.6.5.6.9 1.1 1.4 1.7.4.6.9 1.2 1.3 1.8l1.2 1.8c.4.6.8 1.2 1.2 1.9l.6 1.2c.1.3.3.5.4.8 0 .1.1.2.1.3.2.4.4.9.6 1.3v.1c0 .1.1.2.1.3.1.1.1.2.1.3.2.5.5 1 .7 1.5.1.2.2.4.3.7.2.4.3.8.4 1.1.2.6.4 1.2.7 1.9 0 .1.1.2.1.3.1.2.1.4.2.6.1.3.2.5.2.8.1.3.2.6.2.9l.3 1.2c.1.3.1.7.2 1 .2.8.3 1.5.4 2.3 0 .2.1.5.1.8 0 .2.1.5.1.8.1.6.2 1.3.2 2 .3 1.2.4 2.6.4 4z" style="fill:#6f4232"/><path id="XMLID_2951_" class="st177" d="M392.5 435.2v37.4c-18.5 11.7-38.7 21.1-60.1 27.8v-58c0-4 3.2-7.2 7.2-7.2h52.9z"/><path id="XMLID_2965_" d="M203.3 340.9c-4.9 0-9.6.7-14.1 2.1-15 4.5-27 16.1-32.1 30.8-1 2.9-1.7 5.9-2.2 9-.3 2.3-.5 4.6-.5 6.9v101c.2.1.3.2.5.3.1 0 .1.1.2.1.6.3 1.1.7 1.7 1-.6-.3-1.3-.5-1.9-.8-14.1-6.1-27.6-13.4-40.3-21.8v-79.8c0-15.1 6.9-28.6 17.7-37.6 6.4-5.3 14.1-9 22.6-10.5 2.8-.5 5.6-.7 8.5-.7h39.9z" style="fill:#4c3328"/><path id="XMLID_2946_" class="st177" d="M174.4 442.4v56.4c-5.9-2-11.8-4.2-17.5-6.6-.6-.3-1.3-.5-1.9-.8-14.1-6.1-27.6-13.4-40.3-21.8-.1-.1-.2-.2-.4-.2v-34.1h52.9c4-.1 7.2 3.1 7.2 7.1z"/><path id="XMLID_2954_" class="st178" d="M155.2 491.1c.6.3 1.1.7 1.7 1-.6-.3-1.3-.5-1.9-.8-14.1-6.1-27.6-13.4-40.3-21.8v-34.3h39.8v55.5c.2.1.3.2.5.3.1 0 .1 0 .2.1z"/><path id="XMLID_2896_" class="st177" d="M263.3 362.7h-19.4c-11.6 0-21-9.4-21-21v-28.4c0-11.6 9.4-21 21-21h19.4c11.6 0 21 9.4 21 21v28.4c-.1 11.6-9.4 21-21 21z"/><path id="XMLID_2895_" class="st178" d="M264.3 362.5c-1.1.1-2.2.2-3.3.2h-15.7c-12.6 0-22.8-8.6-22.8-19.3v-31.7c0-10.6 10.2-19.3 22.8-19.3H261c1.1 0 2.2.1 3.3.2-11 1.4-19.5 9.4-19.5 19.1v31.7c0 9.7 8.5 17.8 19.5 19.1z"/><path id="XMLID_2894_" class="st177" d="M212.4 307c-.1 0-.2-.1-.3-.1.1 0 .2 0 .3.1z"/><path id="XMLID_2893_" class="st177" d="M163.6 269.4z"/><path id="XMLID_2892_" class="st177" d="M198.3 300.2c-.3-.2-.6-.3-.9-.5.3.2.6.3.9.5z"/><path id="XMLID_2888_" class="st177" d="M223.1 310.6c-.2 0-.3-.1-.5-.1.2 0 .3 0 .5.1z"/><path id="XMLID_2887_" class="st177" d="M210 306c-.2-.1-.4-.2-.6-.2.2 0 .4.1.6.2z"/><path id="XMLID_2886_" class="st177" d="M166.5 273.1c-.4-.5-.7-.9-1.1-1.4.3.5.7 1 1.1 1.4z"/><path id="XMLID_2885_" class="st177" d="m165 271.2-1.2-1.5 1.2 1.5z"/><path id="XMLID_2884_" class="st177" d="M153.3 252.5c-.3-.6-.6-1.3-.9-1.9.3.6.6 1.2.9 1.9z"/><path id="XMLID_2883_" class="st177" d="M184.8 291.2c-.2-.2-.4-.3-.6-.5.2.2.4.3.6.5z"/><path id="XMLID_2882_" class="st177" d="M152.2 250.2c-.3-.7-.6-1.3-.9-2 .3.7.6 1.3.9 2z"/><path id="XMLID_2881_" class="st177" d="M220.3 309.7c-.1 0-.1 0-.2-.1 0 .1.1.1.2.1z"/><path id="XMLID_2880_" class="st177" d="M154.5 254.7c-.3-.6-.7-1.3-1-1.9.3.7.6 1.3 1 1.9z"/><path id="XMLID_2879_" class="st177" d="M155.7 257c-.4-.7-.7-1.3-1.1-2 .4.7.7 1.3 1.1 2z"/><path id="XMLID_2878_" class="st177" d="m174.9 282.5-1-1c.3.3.7.6 1 1z"/><path id="XMLID_2877_" class="st177" d="M173.1 280.7c-.3-.4-.7-.7-1-1.1.3.3.7.7 1 1.1z"/><path id="XMLID_2876_" class="st177" d="M180.5 287.7c-.3-.3-.7-.6-1-.9.4.3.7.6 1 .9z"/><path id="XMLID_2875_" class="st177" d="M202.9 302.7c-.3-.1-.5-.3-.8-.4.2.1.5.2.8.4z"/><path id="XMLID_2874_" class="st177" d="m176.7 284.3-1-1c.4.3.7.6 1 1z"/><path id="XMLID_2873_" class="st177" d="M200.6 301.5c-.3-.2-.6-.3-.8-.5.2.2.5.3.8.5z"/><path id="XMLID_2872_" class="st177" d="M169.7 276.9c-.4-.4-.7-.8-1-1.2.3.4.6.8 1 1.2z"/><path id="XMLID_2871_" class="st177" d="M207.6 304.9c-.2-.1-.5-.2-.7-.3.2.1.5.2.7.3z"/><path id="XMLID_2870_" class="st177" d="M168 275c-.4-.4-.7-.8-1.1-1.3.4.5.8.9 1.1 1.3z"/><path id="XMLID_2869_" class="st177" d="M205.2 303.8c-.3-.1-.5-.3-.8-.4.3.2.6.3.8.4z"/><path id="XMLID_2868_" class="st177" d="M182.5 289.4c-.3-.2-.6-.5-.9-.7.3.2.6.4.9.7z"/><path id="XMLID_2867_" class="st177" d="M171.4 278.8c-.3-.4-.7-.8-1-1.1.3.4.6.7 1 1.1z"/><path id="XMLID_2866_" class="st177" d="M233.9 313c-.3 0-.5-.1-.8-.1.3 0 .5.1.8.1z"/><path id="XMLID_2865_" class="st177" d="M189.4 294.6c-.3-.2-.5-.4-.8-.5.3.1.6.3.8.5z"/><path id="XMLID_2864_" class="st177" d="M231.2 312.5c-.3-.1-.5-.1-.8-.2.3.1.5.2.8.2z"/><path id="XMLID_2863_" class="st177" d="M191.6 296.1c-.3-.2-.6-.4-.8-.6.3.2.5.4.8.6z"/><path id="XMLID_2862_" class="st177" d="M236.6 313.4c-.3 0-.5-.1-.8-.1.3.1.5.1.8.1z"/><path id="XMLID_2861_" class="st177" d="M196 298.9c-.3-.2-.6-.3-.9-.5.4.1.6.3.9.5z"/><path id="XMLID_2860_" class="st177" d="M178.6 286c-.3-.3-.7-.6-1-.9.4.3.7.6 1 .9z"/><path id="XMLID_2859_" class="st177" d="M193.8 297.5c-.3-.2-.6-.4-.8-.5.2.2.5.3.8.5z"/><path id="XMLID_2858_" class="st177" d="M149.3 243.3c-3.3-8.6-5.6-17.7-6.6-27.2 1 9.4 3.3 18.5 6.6 27.2z"/><path id="XMLID_2857_" class="st177" d="M225.8 311.3c-.2-.1-.4-.1-.6-.2.2.1.4.1.6.2z"/><path id="XMLID_2856_" class="st177" d="M187.2 293c-.2-.2-.5-.3-.7-.5.3.2.5.4.7.5z"/><path id="XMLID_2855_" class="st177" d="M150.2 245.6c-.3-.7-.6-1.4-.8-2.1.2.6.5 1.3.8 2.1z"/><path id="XMLID_2854_" class="st177" d="M228.5 311.9c-.2-.1-.5-.1-.7-.2.2.1.5.2.7.2z"/><path id="XMLID_2853_" class="st177" d="M151.2 247.9c-.3-.7-.6-1.4-.9-2 .3.6.6 1.3.9 2z"/><path id="XMLID_2852_" class="st177" d="M369.1 170.7c-.7-.1-1.5-.2-2.2-.2h-2.6v-17.3c0-36.6-17.7-69.1-45-89.4-7.5 12.5-27.1 34.3-75.2 45.9-5.6 1.4-10.3-4.3-8-9.6 4.3-9.8 9.2-23.7 8.9-36-.2-6.9-9.3-9.1-12.5-3-4.6 8.4-11.9 18.6-22.8 25.1-2 1.2-4.1 1.2-6 .5-13.9 18.6-22.1 41.6-22.1 66.6V203.6c0 54.6 39.4 100.1 91.4 109.5 47.9-8.6 85.2-48 90.7-96.9h3.3c8.5 0 15.4-6.9 15.4-15.4v-14.7c-.1-7.9-5.8-14.3-13.3-15.4z"/><path id="XMLID_2851_" class="st178" d="M197.4 299.7c-.5-.3-.9-.5-1.4-.8.5.3 1 .5 1.4.8z"/><path id="XMLID_2850_" class="st178" d="M195.2 298.4c-.5-.3-.9-.6-1.4-.9.5.3.9.6 1.4.9z"/><path id="XMLID_2849_" class="st178" d="M199.7 301c-.5-.3-1-.5-1.4-.8.5.3.9.5 1.4.8z"/><path id="XMLID_2848_" class="st178" d="M227.8 311.8c-.7-.2-1.3-.3-2-.5.7.2 1.3.3 2 .5z"/><path id="XMLID_2847_" class="st178" d="M230.4 312.4c-.6-.1-1.3-.3-1.9-.4.7.1 1.3.2 1.9.4z"/><path id="XMLID_2846_" class="st178" d="m225.2 311.1-2.1-.6c.7.3 1.4.5 2.1.6z"/><path id="XMLID_2845_" class="st178" d="M233.1 312.9c-.6-.1-1.3-.2-1.9-.4.6.1 1.3.3 1.9.4z"/><path id="XMLID_2844_" class="st178" d="M238.5 313.7c-.7-.1-1.3-.2-1.9-.3.6.1 1.3.2 1.9.3z"/><path id="XMLID_2842_" class="st178" d="M202 302.3c-.5-.3-1-.5-1.5-.8.6.2 1.1.5 1.5.8z"/><path id="XMLID_2841_" class="st178" d="M222.6 310.4c-.8-.2-1.6-.5-2.3-.7.7.3 1.5.5 2.3.7z"/><path id="XMLID_2840_" class="st178" d="M235.8 313.3c-.6-.1-1.3-.2-1.9-.3.6.1 1.3.2 1.9.3z"/><path id="XMLID_2838_" class="st178" d="M220.1 309.7c-2.6-.8-5.1-1.7-7.6-2.7 2.4 1 5 1.9 7.6 2.7z"/><path id="XMLID_2837_" class="st178" d="M206.9 304.6c-.6-.3-1.1-.5-1.7-.8.6.3 1.1.6 1.7.8z"/><path id="XMLID_2836_" class="st178" d="M204.4 303.5c-.5-.3-1-.5-1.6-.8.6.2 1.1.5 1.6.8z"/><path id="XMLID_2835_" class="st178" d="M209.4 305.7c-.6-.3-1.2-.5-1.8-.8.6.3 1.2.6 1.8.8z"/><path id="XMLID_2834_" class="st178" d="m212.1 306.9-2.1-.9 2.1.9z"/><path id="XMLID_2833_" class="st178" d="M151.3 248.2c0-.1-.1-.2-.1-.3 0 .1.1.2.1.3z"/><path id="XMLID_2832_" class="st178" d="M193 297c-.5-.3-.9-.6-1.3-.9.4.3.8.6 1.3.9z"/><path id="XMLID_2831_" class="st178" d="M149.3 243.4c0-.1 0-.1-.1-.2.1.1.1.2.1.2z"/><path id="XMLID_2830_" class="st178" d="M154.6 255c-.1-.1-.1-.2-.2-.3.1.1.2.2.2.3z"/><path id="XMLID_2829_" class="st178" d="M152.4 250.5c-.1-.1-.1-.2-.2-.4.1.2.1.3.2.4z"/><path id="XMLID_2828_" class="st178" d="M153.5 252.8c-.1-.1-.1-.2-.2-.3.1.1.1.2.2.3z"/><path id="XMLID_2827_" class="st178" d="M155.8 257.2c0-.1-.1-.1-.1-.2 0 .1 0 .1.1.2z"/><path id="XMLID_2826_" class="st178" d="M150.3 245.8c0-.1-.1-.2-.1-.3 0 .1.1.2.1.3z"/><path id="XMLID_2825_" class="st178" d="M181.6 288.6c-.4-.3-.7-.6-1.1-.9.4.3.8.6 1.1.9z"/><path id="XMLID_2824_" class="st178" d="M179.6 286.8c-.3-.3-.6-.6-.9-.8.2.3.6.6.9.8z"/><path id="XMLID_2823_" class="st178" d="M184.2 290.7c-.6-.4-1.1-.9-1.7-1.3.6.4 1.1.9 1.7 1.3z"/><path id="XMLID_2822_" class="st178" d="M163.8 269.7c-.1-.1-.1-.2-.2-.3.1.1.1.2.2.3z"/><path id="XMLID_2821_" class="st178" d="M177.6 285.1c-.3-.3-.6-.5-.9-.8.3.2.6.5.9.8z"/><path id="XMLID_2820_" class="st178" d="M188.6 294.1c-.5-.3-.9-.7-1.4-1 .5.3 1 .6 1.4 1z"/><path id="XMLID_2819_" class="st178" d="M186.5 292.5c-.6-.4-1.2-.9-1.8-1.4.7.5 1.2 1 1.8 1.4z"/><path id="XMLID_2818_" class="st178" d="M190.8 295.5c-.5-.3-.9-.6-1.4-.9.5.3.9.6 1.4.9z"/><path id="XMLID_2817_" class="st178" d="M167 273.8c-.2-.2-.3-.4-.5-.6.1.1.3.3.5.6z"/><path id="XMLID_2816_" class="st178" d="M165.4 271.7c-.1-.2-.3-.3-.4-.5.1.2.2.4.4.5z"/><path id="XMLID_2815_" class="st178" d="m175.7 283.3-.8-.8c.3.3.6.5.8.8z"/><path id="XMLID_2814_" class="st178" d="M168.6 275.7c-.2-.2-.4-.5-.6-.7.2.3.4.5.6.7z"/><path id="XMLID_2813_" class="st178" d="m173.9 281.5-.8-.8c.3.2.5.5.8.8z"/><path id="XMLID_2812_" class="st178" d="M170.3 277.7c-.2-.2-.4-.5-.7-.7.3.2.5.4.7.7z"/><path id="XMLID_2811_" class="st178" d="M172.1 279.6c-.2-.3-.5-.5-.7-.8.2.3.4.5.7.8z"/><path id="XMLID_2809_" class="st178" d="M201.3 54.8C166 73.4 142 110.5 142 153.2c-.1-42.7 24-79.7 59.3-98.4z"/><path id="XMLID_2808_" class="st178" d="M181.7 203.5V153.2c0-25 8.2-48 22.1-66.6-3-1.2-5.2-4.5-4.3-8.2 1.9-7.6 3.3-16.9 1.8-23.7C166 73.3 142 110.4 142 153.1v17.3h-2.1c-1.4 0-2.7.2-4 .5-6.6 1.8-11.4 7.7-11.4 14.8v14.7c0 8.5 6.9 15.4 15.4 15.4h2.8c1.1 9.5 3.3 18.6 6.6 27.2 0 .1 0 .1.1.2.3.7.6 1.4.8 2.1 0 .1.1.2.1.3.3.7.6 1.4.9 2 0 .1.1.2.1.3.3.7.6 1.3.9 2 .1.1.1.2.2.4.3.7.6 1.3.9 1.9.1.1.1.2.2.3.3.6.6 1.3 1 1.9 0 .1.1.2.2.3.3.7.7 1.3 1.1 2 0 .1.1.1.1.2 2.3 4.2 5 8.3 7.8 12.2.1.1.1.2.2.3l1.2 1.5c.1.2.3.3.4.5.4.5.7.9 1.1 1.4.2.2.3.4.5.6.3.4.7.9 1.1 1.3.2.2.4.5.6.7.3.4.7.8 1 1.2.2.2.4.5.7.7.3.4.7.8 1 1.1.2.3.5.5.7.8.3.4.7.7 1 1.1l.8.8 1 1 .8.8 1 1c.3.3.6.5.9.8.3.3.7.6 1 .9.3.3.6.6.9.8.3.3.6.6 1 .9.4.3.7.6 1.1.9.3.2.6.5.9.7.5.5 1.1.9 1.7 1.3.2.2.4.3.6.5.6.5 1.2.9 1.8 1.4.2.2.5.3.7.5.5.3.9.7 1.4 1 .3.2.5.4.8.5.4.3.9.6 1.4.9.3.2.6.4.8.6.4.3.9.6 1.3.9.3.2.6.4.8.5.5.3.9.6 1.4.9.3.2.6.3.9.5.5.3.9.6 1.4.8.3.2.6.3.9.5.5.3 1 .5 1.4.8.3.2.6.3.8.5.5.3 1 .5 1.5.8.3.1.5.3.8.4.5.3 1 .5 1.6.8.3.1.5.3.8.4.6.3 1.1.5 1.7.8.2.1.5.2.7.3.6.3 1.2.5 1.8.8.2.1.4.2.6.2l2.1.9c.1 0 .2.1.3.1 2.5 1 5.1 1.9 7.6 2.7.1 0 .1 0 .2.1.8.2 1.6.5 2.3.7.2 0 .3.1.5.1l2.1.6c.2.1.4.1.6.2.7.2 1.3.3 2 .5.2.1.5.1.7.2.6.1 1.3.3 1.9.4.3.1.5.1.8.2.6.1 1.3.2 1.9.4.3 0 .5.1.8.1.6.1 1.3.2 1.9.3.3 0 .5.1.8.1.6.1 1.3.2 1.9.3.3 0 .5.1.8.1.7.1 1.3.2 2 .2.2 0 .5.1.7.1.7.1 1.4.1 2.1.2h.6c.8.1 1.6.1 2.4.2h.4c1.9.1 3.8.1 5.7.1h.2c1.5 0 2.9 0 4.4-.1h.6c1.5-.1 2.9-.2 4.4-.3.2 0 .5 0 .7-.1 1.4-.1 2.9-.3 4.3-.5.2 0 .5-.1.7-.1 1.4-.2 2.8-.4 4.3-.7.1 0 .2 0 .3-.1-52.1-8.9-91.5-54.3-91.5-108.9z"/><path id="XMLID_2807_" style="fill:none" d="M201.3 54.8"/><path id="XMLID_2805_" d="M284 13.8c-.2 0-.5-.1-.8-.1h-.3c-.8-.1-1.5-.1-2.3-.1-1.6-.1-3.3-.1-4.9-.1h-46.4c-1.6 0-3.3 0-4.9.1-4 .2-8 .7-11.9 1.4-2.1.4-4.2.9-6.2 1.4-2.6.7-5.2 1.5-7.7 2.3-1.2.4-2.3.9-3.5 1.3-1.1.4-2.2.9-3.3 1.4-1.1.5-2.2 1-3.2 1.5-.5.2-1 .5-1.5.8-1 .5-2 1.1-3 1.6-30.6 17.3-51 51.6-49.9 90.6l1.6 55.2h.1c.3-.1.5-.1.8-.2h.1c.2-.1.5-.1.7-.1h.5c.2 0 .4 0 .6-.1h3.1V147.8c0-.3 0-.6.1-.9 0-.3 0-.6.1-.9v-.5c0-.6.1-1.1.1-1.7v-.2c.1-1.3.3-2.6.4-3.9.1-.7.2-1.5.3-2.2v-.2c0-.3.1-.6.1-.9v-.5c.1-.6.2-1.3.3-1.9.2-1.3.5-2.5.7-3.8.2-.8.3-1.5.5-2.3.2-.8.4-1.6.6-2.3v-.1c.1-.3.1-.5.2-.8v-.1l.3-.9c.2-.7.4-1.4.6-2v-.1c0-.1.1-.2.1-.4.2-.8.5-1.6.8-2.4.1-.2.1-.4.2-.6v-.2c0-.1.1-.2.1-.4v-.1c0-.1.1-.2.1-.3.1-.2.1-.4.2-.5.1-.2.1-.4.2-.5.1-.4.3-.8.5-1.2 0-.1 0-.1.1-.2 0-.1.1-.2.1-.3.3-.7.6-1.5.9-2.2.1-.4.3-.8.5-1.1.2-.4.3-.8.5-1.1 0-.1.1-.2.1-.3.2-.5.5-1 .7-1.6 0 0 .1-.1.1-.2.1-.3.3-.6.4-.9.1-.3.3-.6.4-.9.1-.1.1-.3.2-.4.1-.1.1-.3.2-.4.2-.5.5-1 .7-1.5.3-.6.6-1.2 1-1.9l.3-.6s0-.1.1-.1c.2-.3.3-.6.5-.9.1-.2.2-.5.4-.7 0-.1.1-.1.1-.2.1-.3.3-.5.5-.8.1-.1.1-.2.2-.3.1-.2.3-.4.4-.7.1-.2.2-.4.4-.6.1-.1.1-.2.2-.3.2-.3.4-.7.6-1 .1-.1.1-.2.2-.3.1-.1.1-.2.2-.4.2-.4.5-.8.8-1.2.1-.2.3-.4.4-.6 0-.1.1-.1.2-.2.2-.2.3-.5.5-.8.2-.4.5-.7.7-1.1 0 0 0-.1.1-.1.1-.1.2-.2.2-.3.3-.5.7-1 1-1.5.4-.5.7-1 1.1-1.5 0 0 0-.1.1-.1l.1-.1c.2-.2.3-.4.5-.7l.1-.1c.1-.2.3-.3.4-.5.2-.3.5-.6.7-.9.1-.2.3-.4.4-.5.3-.4.7-.9 1-1.3v-.1c.3-.3.5-.6.8-.9.2-.2.3-.4.5-.6.1-.1.1-.2.2-.2 0 0 0-.1.1-.1.2-.2.4-.5.6-.7l.2-.2.1-.1c.3-.4.7-.8 1-1.2 0-.1.1-.1.2-.2l.1-.1c.2-.2.3-.4.5-.6.2-.2.4-.5.7-.7l.5-.5 1.8-1.8.3-.3.1-.1.6-.6.5-.5.1-.1 1.3-1.3c.2-.2.5-.4.7-.6.2-.1.3-.3.5-.4l.2-.2c.4-.3.7-.7 1.1-1 .1-.1.2-.2.3-.2.2-.2.4-.4.6-.5.2-.2.5-.4.7-.6l.1-.1c.1-.1.2-.2.3-.2h.1c.1-.1.2-.1.2-.2.5-.4 1-.9 1.6-1.3l.1-.1c.1 0 .1-.1.2-.2.2-.2.5-.4.7-.6.2-.2.5-.4.7-.6.2-.2.5-.4.7-.5.1-.1.2-.2.3-.2.1-.1.2-.1.2-.2.1 0 .1-.1.2-.1.1-.1.3-.2.4-.3.9-.7 1.9-1.4 2.9-2.1.3-.2.6-.4.8-.6.3-.2.5-.4.8-.6.5-.3 1-.7 1.6-1 .5-.3 1-.7 1.6-1 .3-.2.5-.3.8-.5.1-.1.2-.1.3-.2.1 0 .1-.1.2-.1.1-.1.2-.1.3-.2.3-.1.5-.3.8-.5.2-.1.4-.3.7-.4l.1-.1c.2-.1.4-.2.5-.3.1 0 .2-.1.3-.1.3-.2.5-.3.8-.5l1.2-.6s.1 0 .1-.1c.1-.1.2-.1.4-.2 0 .2.1.5.1.7 0 .2.1.5.1.8 0 .2.1.4.1.6v.5c0 .4.1.8.1 1.2V59.6c0 .5 0 1 .1 1.5 0 1.4 0 2.8-.1 4.2 0 .7-.1 1.4-.2 2-.1.7-.2 1.4-.3 2.2-.1.7-.2 1.4-.3 2.2-.1.7-.2 1.5-.4 2.2-.3 1.8-.7 3.6-1.1 5.2-.1.3-.1.6-.2.9-.1.7-.1 1.3 0 1.9.1.4.1.7.2 1 .1.2.1.3.2.5s.2.3.2.5c.1.1.2.3.2.4.1.2.2.3.3.5.1.2.2.3.4.4.1.2.3.3.4.5l.1.1c.1.1.3.3.5.4.2.2.4.3.7.5.1.1.3.2.5.3 0 0 .1 0 .1.1l.6.3c.2.1.4.1.6.2.2 0 .3.1.5.1.1 0 .2.1.3.1h1.5c.2 0 .4-.1.6-.1.2 0 .3-.1.5-.1.2-.1.4-.1.5-.2.1-.1.3-.1.5-.2.3-.1.6-.3.8-.4.7-.4 1.3-.8 2-1.3L213 84c.4-.3.7-.5 1-.8.3-.3.7-.5 1-.8.3-.3.7-.5 1-.8.3-.2.6-.5.8-.7.7-.6 1.3-1.2 2-1.8l1.4-1.4c.4-.5.9-.9 1.3-1.4.4-.5.8-1 1.2-1.4.4-.5.8-1 1.2-1.4.9-1.1 1.7-2.2 2.5-3.4.8-1.1 1.5-2.2 2.2-3.3 1-1.7 2-3.3 2.9-4.9 3.3-6 12.4-3.8 12.5 3 .3 12.4-4.6 26.3-8.9 36-.8 1.9-.8 3.9-.1 5.5l.6 1.2c.3.5.7.9 1.1 1.3l.3.3.3.3c.1.1.2.1.3.2.3.2.6.4.9.5.1.1.2.1.3.1.1 0 .3.1.4.1.1 0 .2.1.3.1.2.1.3.1.5.1s.4.1.6.1h.7c.5 0 1.1-.1 1.7-.2l2.4-.6c2-.5 3.9-1 5.7-1.5 1.6-.5 3.2-.9 4.7-1.4.6-.2 1.3-.4 1.9-.6.7-.2 1.3-.4 2-.6.6-.2 1.3-.4 1.9-.7.6-.2 1.3-.4 1.9-.7 1.2-.4 2.5-.9 3.6-1.4.6-.2 1.2-.5 1.8-.7.5-.2 1-.4 1.4-.6 3.3-1.4 6.5-2.8 9.4-4.3.5-.3 1.1-.6 1.6-.8 1.1-.6 2.1-1.1 3.1-1.7.5-.3 1-.5 1.4-.8 3.6-2.1 6.9-4.2 9.9-6.3.6-.5 1.2-.9 1.8-1.3.5-.4.9-.7 1.4-1 1-.8 2-1.6 2.9-2.4.6-.5 1.2-1 1.8-1.6.3-.3.6-.5.9-.8.3-.3.6-.5.8-.8.3-.2.6-.5.8-.8 5.7-5.4 9.4-10.5 11.9-14.6 27.3 20.3 45 52.8 45 89.4v17.3h2.6c.7 0 1.5.1 2.2.2l1.6-54.8c2.9-53.9-35.7-98.4-85.4-102.8z" style="fill:#cd462a"/><path id="XMLID_2802_" d="M283.2 13.7h-.3c-.8-.1-1.5-.1-2.3-.1-1.6-.1-3.2-.1-4.8-.1h-46.4c-1.7 0-3.3 0-5 .1-4 .2-8 .7-11.9 1.4-2.1.4-4.2.9-6.2 1.4-2.6.7-5.2 1.5-7.7 2.3-1.2.4-2.3.9-3.5 1.3-1.1.4-2.2.9-3.3 1.4-1.1.5-2.2 1-3.2 1.5-.5.2-1 .5-1.5.8-1 .5-2 1.1-3 1.6-30.5 17.3-50.9 51.6-49.8 90.6l1.6 55.2c.8-.2 1.7-.4 2.6-.5H141.9v-17.3c0-42.7 24-79.7 59.3-98.4h.1c1.5 6.8.1 16.1-1.8 23.7-.6 2.4.1 4.6 1.5 6.2 10.8-38.5 43.3-67.4 82.9-71h.1c-.2-.1-.5-.1-.8-.1z" style="fill:#aa3524"/><path id="XMLID_2801_" class="st178" d="M260.9 220.8h-13.8c-4.5 0-8.2-3.7-8.2-8.2 0-4.5 3.7-8.2 8.2-8.2h13.8c4.5 0 8.2 3.7 8.2 8.2 0 4.6-3.7 8.2-8.2 8.2z"/><path id="XMLID_2800_" class="st184" d="M232.6 232.6c0 11.8 9.6 21.4 21.4 21.4 11.8 0 21.4-9.6 21.4-21.4"/><path id="XMLID_2799_" class="st184" d="M286.1 178c0 8 6.5 14.4 14.4 14.4 8 0 14.4-6.5 14.4-14.4"/><path id="XMLID_2798_" class="st184" d="M187.6 178c0 8 6.5 14.4 14.4 14.4 8 0 14.4-6.5 14.4-14.4"/><path id="XMLID_2797_" class="st184" d="M241.1 271h25.8"/><path id="XMLID_2796_" d="M318.5 33.5c7.4 4.4 20.4 13 27.1 23.3.7 1-.1 2.4-1.3 2.4h-7.1c-.9 0-1.6.7-1.6 1.5l-.2 7.4c0 1.3-1.5 2-2.5 1.2-4.6-3.5-15-10.8-25.9-13.6-1.5-.4-1.6-2.4-.2-3l10.1-3.9c.6-.2 1-.8 1-1.5 0-2.3-.2-7.8-1.7-12-.4-1.3 1.1-2.5 2.3-1.8z" style="fill:#d15f4d"/><path id="XMLID_2795_" class="st0" d="M145.2 215s-82.9 97.6 14.5 160.4c14.9 9.6 32.9 13.8 50.4 10.5 14-2.6 28.8-10.1 37-28.4 6.3-14.2 6.5-30.4.8-44.9-5.6-14.4-17.4-30.8-41.8-31.2-34.3-.4-61.9-28.1-61.1-62.4.1-1.3.1-2.6.2-4z"/><path id="XMLID_2794_" class="st15" d="M247.4 357.5c-8.2 18.3-23 25.8-37 28.5-11.3 2.1-22.8 1.1-33.5-2.4 11-3.9 21.6-11.6 28-26 6.3-14.2 6.5-30.4.8-44.9-5.6-14.4-17.4-30.8-41.8-31.2-17.7-.2-33.6-7.7-44.7-19.6 9.6-27.3 26.3-46.9 26.3-46.9-.1 1.4-.1 2.7-.1 4.1-.8 34.3 26.8 61.9 61.1 62.4 24.3.3 36.1 16.8 41.8 31.2 5.6 14.4 5.5 30.6-.9 44.8z"/><path id="XMLID_2793_" class="st0" d="M361 215s82.9 97.6-14.5 160.4c-14.9 9.6-32.9 13.8-50.4 10.5-14-2.6-28.8-10.1-37-28.4-6.3-14.2-6.5-30.4-.8-44.9 5.6-14.4 17.4-30.8 41.8-31.2 34.3-.4 61.9-28.1 61.1-62.4-.1-1.3-.2-2.6-.2-4z"/><path id="XMLID_2792_" class="st15" d="M258.7 357.5c8.2 18.3 23 25.8 37 28.5 11.3 2.1 22.8 1.1 33.5-2.4-11-3.9-21.6-11.6-28-26-6.3-14.2-6.5-30.4-.8-44.9 5.6-14.4 17.4-30.8 41.8-31.2 17.7-.2 33.6-7.7 44.7-19.6-9.6-27.3-26.3-46.9-26.3-46.9.1 1.4.1 2.7.1 4.1.8 34.3-26.8 61.9-61.1 62.4-24.3.3-36.1 16.8-41.8 31.2-5.6 14.4-5.4 30.6.9 44.8z"/></g></g></g></svg>