<svg xmlns="http://www.w3.org/2000/svg" viewBox="0 0 512 512"><defs><style>.cls-3{fill:#97d8fc}.cls-4{fill:#3e436d}.cls-6{fill:#32314b}.cls-10{fill:#fff}.cls-11{fill:#e88032}.cls-12{fill:#4f4f74}.cls-13{fill:#f6d372}.cls-16{fill:#fdfeff}</style></defs><circle cx="256" cy="256" r="256" style="fill:#f7bb38" id="BULINE"/><g id="Icons"><path style="fill:#7cc8fb" d="M55.52 128.03h401.81v247.1H55.52z"/><circle class="cls-3" cx="433.66" cy="142" r="7.89"/><circle class="cls-3" cx="416.96" cy="142" r="6.5"/><path class="cls-4" d="M472.88 357.64a37.34 37.34 0 0 1-37.3 35.61H76.16a37.34 37.34 0 0 1-37.3-35.61 11 11 0 0 1 11-10.11h121.07a6.62 6.62 0 0 1 6.54 5.59c1.55 9.94 10.14 12.16 20.21 12.16h116.38c10.07 0 18.65-2.22 20.21-12.16a6.62 6.62 0 0 1 6.54-5.59h121.11a11 11 0 0 1 10.96 10.11zM74.72 94.08h363.41a19.2 19.2 0 0 1 19.2 19.2V128H55.52v-14.72a19.2 19.2 0 0 1 19.2-19.2z"/><path style="fill:#41c0e3" d="M55.49 128.03h78.09v219.5H55.49z"/><path class="cls-6" d="M133.58 347.53v45.72H76.12a37.33 37.33 0 0 1-37.29-35.61 11 11 0 0 1 11-10.11zM133.58 94.08v34H55.49v-14.8a19.2 19.2 0 0 1 19.2-19.2z"/><rect x="68.61" y="153.37" width="372.14" height="180.67" rx="12.97" style="fill:#f7ffe1"/><path d="M293 243.49a15.93 15.93 0 0 0 10.18 14.86 4.45 4.45 0 0 1 2.82 4.16v35.68a4.49 4.49 0 0 1-4.48 4.49H97.34a4.49 4.49 0 0 1-4.49-4.49v-34.81a4.49 4.49 0 0 1 3.56-4.38 15.94 15.94 0 0 0 0-31.07 4.49 4.49 0 0 1-3.56-4.35V188.8a4.49 4.49 0 0 1 4.49-4.49h204.15a4.49 4.49 0 0 1 4.51 4.49v35.68a4.45 4.45 0 0 1-2.82 4.16A15.92 15.92 0 0 0 293 243.49z" style="fill:#f6c752"/><path d="M306 291.74v6.87a4.48 4.48 0 0 1-4.49 4.48H97.34a4.48 4.48 0 0 1-4.49-4.48V263.8a4.5 4.5 0 0 1 3.56-4.36 15.93 15.93 0 0 0 0-31.06 4.5 4.5 0 0 1-3.56-4.38v-34.79a4.49 4.49 0 0 1 4.49-4.49h13.92v27.95a4.5 4.5 0 0 0 3.55 4.36 15.93 15.93 0 0 1 0 31.06 4.48 4.48 0 0 0-3.55 4.35v34.82a4.49 4.49 0 0 0 4.48 4.48z" style="fill:#e0b044"/><rect class="cls-10" x="157.12" y="186.42" width="9.15" height="16.66" rx="4.58"/><rect class="cls-10" x="157.12" y="205.92" width="9.15" height="16.66" rx="4.58"/><rect class="cls-10" x="157.12" y="225.41" width="9.15" height="16.66" rx="4.58"/><rect class="cls-10" x="157.12" y="244.91" width="9.15" height="16.66" rx="4.58"/><rect class="cls-10" x="157.12" y="264.41" width="9.15" height="16.66" rx="4.58"/><rect class="cls-10" x="157.12" y="283.91" width="9.15" height="16.66" rx="4.58"/><rect class="cls-11" x="111.26" y="194.75" width="39.27" height="13.91" rx="1.46"/><rect class="cls-11" x="111.26" y="254.53" width="39.27" height="13.91" rx="1.46"/><rect class="cls-11" x="111.26" y="278.33" width="39.27" height="13.91" rx="1.46"/><rect class="cls-11" x="111.26" y="218.37" width="39.27" height="26.46" rx="2.02"/><path class="cls-12" d="M187.22 237.52V255h-6.67v-17.48h-4.76V232H192v5.49zM201 232v23h-7v-23zM217.63 246.21l6.43.38a9.38 9.38 0 0 1-3.11 6.47 10.71 10.71 0 0 1-14.09-.84c-1.92-2.06-2.87-4.9-2.87-8.53a13.25 13.25 0 0 1 2.72-8.71 9.28 9.28 0 0 1 7.59-3.3q4.56 0 7 2.52a10.35 10.35 0 0 1 2.76 6.68l-6.57.36a5 5 0 0 0-.88-3.33 2.68 2.68 0 0 0-2.07-1q-3.33 0-3.33 6.69c0 2.5.29 4.2.87 5.09a2.71 2.71 0 0 0 2.42 1.31q2.79 0 3.13-3.79zM247.32 255h-7.71l-4-8.67-2.38 3.38V255h-6.64v-23h6.64v9.48l6.32-9.48h6.33l-5.79 8.39zM266.45 249.48V255H249.2v-23h17.25v5.29H256.1v3.33h8.37v5.09h-8.37v3.74zM278.67 237.52V255H272v-17.48h-4.76V232h16.18v5.49z"/><circle class="cls-13" cx="286.98" cy="216.62" r="8.14"/><circle class="cls-13" cx="286.98" cy="199.66" r="5.76"/><circle cx="380.96" cy="243.7" r="41.67" style="fill:#b0d46c"/><circle cx="380.96" cy="243.7" r="29.49" style="fill:#cbe88b"/><path class="cls-16" d="M347.9 255.45v-23.87H360q3.78 0 5.51 1.91a6.26 6.26 0 0 1 1.73 4.35 5.51 5.51 0 0 1-1 3.23 5.14 5.14 0 0 1-3 2c3.09.75 4.63 2.6 4.63 5.57a7.47 7.47 0 0 1-1.63 4.74c-1.09 1.4-3.42 2.09-7 2.09zm6.75-14.72h3.4a2.2 2.2 0 0 0 1.8-.65 2.14 2.14 0 0 0 .52-1.38c0-1.33-.81-2-2.45-2h-3.27zm0 9.41h3.57a2.55 2.55 0 0 0 1.95-.66 2.12 2.12 0 0 0 .62-1.48 2.27 2.27 0 0 0-.6-1.51 2.85 2.85 0 0 0-2.21-.69h-3.33zM390.28 231.58v15.81q0 4.5-2.67 6.46a11.34 11.34 0 0 1-6.95 2 12.54 12.54 0 0 1-7.25-1.89c-1.82-1.26-2.74-3.31-2.74-6.15v-16.2h7.45v15.34a3.62 3.62 0 0 0 .73 2.5 3 3 0 0 0 2.31.79 3.8 3.8 0 0 0 2.17-.57 2.17 2.17 0 0 0 1-1.29 14.88 14.88 0 0 0 .17-2.79v-14zM414 231.58l-7.47 13.77v10.1h-7.12v-10.1l-8-13.77h8l4.18 7.87 4-7.87z"/><circle class="cls-6" cx="256.43" cy="111.05" r="7.23"/><path class="cls-6" d="m387.12 266.38 20.1 53a4.47 4.47 0 0 0 8.28.19l7.5-17.39a7.41 7.41 0 0 1 3.88-3.89l17.41-7.51a4.46 4.46 0 0 0-.18-8.27l-53-20.1a3.08 3.08 0 0 0-3.99 3.97z"/><path d="M472.13 393.25a256.06 256.06 0 0 1-432.26 0z" style="fill:#a65c3b"/></g></svg>