<svg xmlns="http://www.w3.org/2000/svg" viewBox="0 0 48 48"><defs><style>.cls-1{fill:#dad7e5}.cls-2{fill:#edebf2}.cls-3{fill:#2c435e}.cls-4{fill:#374f68}.cls-7{fill:#fc6}.cls-8{fill:#ffde76}.cls-9{fill:#7c7d7d}</style></defs><g id="Rent_Car" data-name="Rent Car"><path class="cls-1" d="M44 31c0 4.36.18 4.82-.59 5.59l-3.82 3.82c-.84.84 1 .59-29.76.59-1.05 0-1.27-.44-3.83-3s-2-1.33-2-7a2 2 0 0 1 2-2h36a2 2 0 0 1 2 2z"/><path class="cls-2" d="M44 31c0 5.93.57 4.43-3 8H17A10 10 0 0 1 7 29c0-.1 35.1 0 35 0a2 2 0 0 1 2 2z"/><path class="cls-3" d="M14 41v6H6v-9c3.57 3.57 2.12 3 8 3z"/><path class="cls-4" d="M14 43v4H6v-7c3.57 3.57 2.12 3 8 3z"/><path class="cls-3" d="M42 38v9h-8v-6c5.91 0 4.4.6 8-3z"/><path class="cls-4" d="M42 40v7h-8v-4c5.91 0 4.4.6 8-3z"/><path d="M42 29H6c1.45-5.09.74-2.6 3.17-11.1a4 4 0 0 1 3.37-2.9h22.44a4 4 0 0 1 3.85 2.9z" style="fill:#9fdbf3"/><path d="M41.43 27H13.16a3.14 3.14 0 0 1-3-4c2.08-7.3 2-7.38 2.4-8H35a4 4 0 0 1 3.85 2.9c2.37 8.37 1.84 6.49 2.58 9.1z" style="fill:#b2e5fb"/><path class="cls-1" d="M7.14 25c-1 3.53-.75 2.67-1.14 4H3a2 2 0 0 1-.82-3.82c.54-.26.66-.18 4.96-.18z"/><path class="cls-2" d="M5.14 25c-1 3.45-.73 3-1.14 3a2 2 0 0 1-1.82-2.82C2.7 24.93 3 25 5.14 25z"/><path class="cls-1" d="M46.41 28.41c-.75.77-1.4.59-4.41.59l-1.14-4H45a2 2 0 0 1 1.41 3.41z"/><path class="cls-2" d="M46.82 27.82c-1.27.61-3.93-.22-4.67-2.82h2.69a2 2 0 0 1 1.98 2.82z"/><path class="cls-7" d="M10 33h6v4h-6z"/><path class="cls-8" d="M16 33v3h-2a3 3 0 0 1-3-3z"/><path class="cls-7" d="M32 33h6v4h-6z"/><path class="cls-8" d="M38 33v3h-2a3 3 0 0 1-3-3z"/><path class="cls-9" d="M19 37v-4a1 1 0 0 1 2 0v4a1 1 0 0 1-2 0zM23 37v-4a1 1 0 0 1 2 0v4a1 1 0 0 1-2 0zM27 37v-4a1 1 0 0 1 2 0v4a1 1 0 0 1-2 0z"/><path class="cls-4" d="M22 6a5 5 0 0 1-5 5h-7V1h7a5 5 0 0 1 5 5z"/><path d="M21 9c-3.58 2.72-10-.33-10-6V1h6a5 5 0 0 1 4 8z" style="fill:#425b72"/><path class="cls-1" d="M38 4v4H21.59a5.05 5.05 0 0 0 0-4z"/><path class="cls-2" d="M38 4v3H26a3 3 0 0 1-3-3z"/><path d="M35 7v1h-2V7a1 1 0 0 1 2 0z" style="fill:#c6c3d8"/><path class="cls-3" d="M12 8V4a1 1 0 0 1 2 0v4a1 1 0 0 1-2 0z"/><path d="M19 6a1 1 0 0 0-2 0 1 1 0 0 0 2 0z" style="fill:#9dcc6b"/><path class="cls-9" d="M22.71 24.71 18.42 29h-2.84l5.71-5.71a1 1 0 0 1 1.42 1.42zM31.71 24.71 27.42 29h-2.84l5.71-5.71a1 1 0 0 1 1.42 1.42z"/></g></svg>