<svg xmlns="http://www.w3.org/2000/svg" viewBox="0 0 256 256" style="enable-background:new 0 0 256 256" xml:space="preserve"><style>.st3{fill:#5290db}.st5{fill:#f5c84c}.st7{fill:#70d6f9}.st11{fill:#f9c1a8}</style><g id="Layer_84"><path class="st7" d="M208.753 184.212a15.592 15.592 0 0 0-11.762-14.253l-15.347-3.863v39.002a4.683 4.683 0 0 0-2.256-.598H164.9c-.82 0-1.581.229-2.256.598v-43.725c0-.308.036-.607.091-.899l-7.274-3.587a13.648 13.648 0 0 1-7.613-12.242v-6.726a39.169 39.169 0 0 1-18.777 4.778 39.131 39.131 0 0 1-17.628-4.188v6.135a13.65 13.65 0 0 1-7.613 12.242l-7.274 3.587c.055.292.091.591.091.899v43.725a4.683 4.683 0 0 0-2.256-.598H79.9c-.82 0-1.581.229-2.256.598v-39.002l-15.347 3.863a15.592 15.592 0 0 0-11.762 14.253l-4.369 64.712a4.335 4.335 0 0 0 4.328 4.576h158.299a4.335 4.335 0 0 0 4.328-4.576l-4.368-64.711z"/><path class="st5" d="M94.388 218.5H79.9c-.82 0-1.581-.229-2.256-.598V253.5h19v-35.598a4.683 4.683 0 0 1-2.256.598zM179.388 218.5H164.9c-.82 0-1.581-.229-2.256-.598V253.5h19v-35.598a4.683 4.683 0 0 1-2.256.598z"/><path class="st11" d="M155.46 156.887a13.648 13.648 0 0 1-7.613-12.242v-6.726a39.169 39.169 0 0 1-18.777 4.778 39.131 39.131 0 0 1-17.628-4.188v6.135a13.65 13.65 0 0 1-7.613 12.242l-1.703.84c5.147 9.987 15.566 16.861 27.52 16.861s22.373-6.875 27.52-16.861l-1.706-.839z"/><path class="st3" d="M147.834 137.926zM186.22 104h-7.117a16.413 16.413 0 0 1-7.987 2.066 16.58 16.58 0 0 1-2.635-.23 39.187 39.187 0 0 1-.905 6.139l-.009.038c-2.582 11.198-9.958 20.594-19.734 25.914l.013-.006v6.726a13.65 13.65 0 0 0 7.613 12.242l7.274 3.587a4.842 4.842 0 0 0-.091.899 4.874 4.874 0 0 1 4.874-4.874h9.253a4.874 4.874 0 0 1 4.874 4.874v4.722l15.347 3.863c.579.146 1.138.333 1.686.54v-54.042c.001-6.853-5.604-12.458-12.456-12.458zM89.658 105.836c-.86.139-1.736.23-2.635.23-2.899 0-5.62-.753-7.987-2.066h-5.968c-6.851 0-12.457 5.605-12.457 12.457v54.042a15.349 15.349 0 0 1 1.687-.54l15.347-3.863v-4.722a4.874 4.874 0 0 1 4.874-4.874h9.253a4.874 4.874 0 0 1 4.874 4.874c0-.308-.036-.607-.091-.899l7.274-3.587a13.648 13.648 0 0 0 7.613-12.242v-6.135c-12.314-6.193-20.835-18.528-21.784-32.675z"/><path d="M186.221 101.5h-6.978a2.5 2.5 0 1 0 0 5h6.978c5.49 0 9.957 4.467 9.957 9.957v53.582a2.5 2.5 0 1 0 5 0v-53.582c0-8.247-6.71-14.957-14.957-14.957zM78.788 101.5h-5.72c-8.247 0-14.957 6.71-14.957 14.957v53.453a2.5 2.5 0 1 0 5 0v-53.453c0-5.49 4.467-9.957 9.957-9.957h5.72a2.5 2.5 0 1 0 0-5zM111.441 136.533a2.5 2.5 0 0 0-2.5 2.5v5.611a11.08 11.08 0 0 1-6.219 10l-6.839 3.372a2.5 2.5 0 0 0 2.211 4.485l6.839-3.372c5.557-2.739 9.008-8.289 9.008-14.484v-5.611a2.5 2.5 0 0 0-2.5-2.501zM163.423 158.026l-6.857-3.382a11.08 11.08 0 0 1-6.219-10v-5.726a2.5 2.5 0 1 0-5 0v5.726c0 6.195 3.451 11.745 9.008 14.484l6.857 3.382a2.5 2.5 0 0 0 2.211-4.484z"/><path d="m215.615 248.756-4.366-64.683a18.011 18.011 0 0 0-13.647-16.539l-14.363-3.616a2.507 2.507 0 0 0-3.035 1.814 2.501 2.501 0 0 0 1.814 3.035l14.363 3.616c5.587 1.405 9.556 6.215 9.878 11.996l4.366 64.684c.028.509-.148.992-.499 1.363a1.82 1.82 0 0 1-1.332.573H50.495c-.51 0-.983-.204-1.333-.574a1.801 1.801 0 0 1-.501-1.334l4.37-64.74a13.032 13.032 0 0 1 9.877-11.968l14.988-3.773a2.5 2.5 0 0 0-1.221-4.849l-14.988 3.773c-7.721 1.943-13.205 8.589-13.646 16.51l-4.37 64.74a6.862 6.862 0 0 0 1.858 5.077A6.862 6.862 0 0 0 50.495 256h158.299c1.87 0 3.68-.779 4.965-2.138a6.875 6.875 0 0 0 1.856-5.106z"/><path class="st5" d="M94.388 204.5H79.9a4.77 4.77 0 0 0-4.756 4.756v4.488A4.77 4.77 0 0 0 79.9 218.5h14.488a4.77 4.77 0 0 0 4.756-4.756v-4.488a4.77 4.77 0 0 0-4.756-4.756zM179.388 204.5H164.9a4.77 4.77 0 0 0-4.756 4.756v4.488a4.77 4.77 0 0 0 4.756 4.756h14.488a4.77 4.77 0 0 0 4.756-4.756v-4.488a4.77 4.77 0 0 0-4.756-4.756z"/><path class="st5" d="M176.771 156.5h-9.253a4.874 4.874 0 0 0-4.874 4.874v43.725a4.683 4.683 0 0 1 2.256-.598h14.488c.82 0 1.581.229 2.256.598v-43.725a4.874 4.874 0 0 0-4.873-4.874zM91.771 156.5h-9.253a4.874 4.874 0 0 0-4.874 4.874v43.725a4.683 4.683 0 0 1 2.256-.598h14.488c.82 0 1.581.229 2.256.598v-43.725a4.874 4.874 0 0 0-4.873-4.874zM82.088 14.882c-4.498-.837-8.043-4.31-8.898-8.716a.2.2 0 0 0-.395 0c-.855 4.406-4.4 7.879-8.898 8.716a.195.195 0 0 0 0 .387c4.498.838 8.043 4.311 8.898 8.717a.2.2 0 0 0 .395 0c.855-4.406 4.4-7.879 8.898-8.717a.195.195 0 0 0 0-.387z"/><path d="M225.526 105.941c-3.135-.583-5.606-3.004-6.202-6.076a.14.14 0 0 0-.275 0c-.596 3.071-3.067 5.492-6.202 6.076a.136.136 0 0 0 0 .27c3.135.584 5.606 3.004 6.202 6.076a.14.14 0 0 0 .275 0c.596-3.071 3.067-5.492 6.202-6.076a.136.136 0 0 0 0-.27z" style="fill:#fc657e"/><path class="st7" d="M44.487 152.302h-2.329v-2.33a3.156 3.156 0 1 0-6.314 0v2.33h-2.33a3.157 3.157 0 0 0 0 6.315h2.33v2.33a3.157 3.157 0 1 0 6.314 0v-2.33h2.329a3.157 3.157 0 0 0 0-6.315z"/><path class="st5" d="M35.021 179a3.377 3.377 0 1 0 0 6.754 3.377 3.377 0 0 0 0-6.754z"/><path d="M99.021 0a3.377 3.377 0 1 0 0 6.754 3.377 3.377 0 0 0 0-6.754z" style="fill:#87d147"/><path class="st11" d="M168.575 67.372a2.118 2.118 0 0 0-2.04-2.077c-16.414-.481-25.063-6.987-28.386-10.244a2.126 2.126 0 0 0-3.162.199c-14.431 18.148-35.721 15.587-42.879 14.089-1.301-.272-2.549.708-2.55 2.037v31.811c0 21.731 17.78 39.512 39.511 39.512s39.512-17.78 39.512-39.512V67.99c0-.207-.002-.413-.006-.618z"/><path d="M159.989 25.461c-4.21 0-8.147 1.189-11.529 3.218-3.952-6.594-11.15-11.047-19.355-11.047h-11.59c-22.431 0-40.784 18.353-40.784 40.784V76.69a16.42 16.42 0 0 1 10.293-3.617c.863 0 1.708.073 2.535.201V71.384c.001-1.338 1.249-2.318 2.55-2.046 7.158 1.498 28.447 4.059 42.879-14.089a2.127 2.127 0 0 1 3.162-.199c3.323 3.257 11.972 9.763 28.386 10.244a2.118 2.118 0 0 1 2.04 2.077c.004.205.006.411.006.618v5.285a16.548 16.548 0 0 1 2.535-.201c4.447 0 8.475 1.768 11.442 4.629V48.031c-.001-12.414-10.157-22.57-22.57-22.57z" style="fill:#414344"/><path class="st11" d="M171.117 73.074c-.863 0-1.708.073-2.535.201v29.912c0 .891-.041 1.773-.1 2.65.86.138 1.736.23 2.635.23 9.111 0 16.496-7.386 16.496-16.497s-7.386-16.496-16.496-16.496zM89.558 103.187V73.275a16.551 16.551 0 0 0-2.536-.201c-9.111 0-16.496 7.386-16.496 16.496 0 9.111 7.386 16.497 16.496 16.497.899 0 1.775-.092 2.635-.23v-.001a40.088 40.088 0 0 1-.099-2.649z"/><path d="M171.074 67.322a4.608 4.608 0 0 0-4.466-4.526c-15.805-.464-23.943-6.819-26.709-9.53a4.64 4.64 0 0 0-3.525-1.317 4.643 4.643 0 0 0-3.344 1.744l-.001.001c-13.325 16.758-32.7 14.812-40.408 13.198a4.62 4.62 0 0 0-3.868.938 4.569 4.569 0 0 0-1.694 3.572v31.784c0 23.165 18.846 42.012 42.011 42.012s42.012-18.847 42.012-42.012V67.99a37.306 37.306 0 0 0-.008-.668zm-4.993 35.865c0 20.408-16.604 37.012-37.012 37.012s-37.011-16.604-37.011-37.012V71.88c7.226 1.428 29.495 3.943 44.633-14.762 4.075 3.878 13.096 10.094 29.389 10.663l.001.209v35.197z"/><path d="M159.988 22.961a24.84 24.84 0 0 0-10.71 2.443c-4.708-6.388-12.238-10.271-20.175-10.271h-11.59c-23.866 0-43.283 19.417-43.283 43.283V76.69a2.5 2.5 0 0 0 4.062 1.952 13.84 13.84 0 0 1 8.73-3.069c.692 0 1.417.058 2.154.172a2.519 2.519 0 0 0 2.009-.572 2.503 2.503 0 0 0 .873-1.898V71.88c7.227 1.428 29.496 3.941 44.633-14.762 4.075 3.878 13.096 10.094 29.389 10.663l.001.209v5.284a2.501 2.501 0 0 0 2.882 2.47 14.158 14.158 0 0 1 2.154-.172c3.632 0 7.078 1.396 9.706 3.929a2.502 2.502 0 0 0 2.713.501 2.5 2.5 0 0 0 1.522-2.301V48.03c.001-13.823-11.245-25.069-25.07-25.069zm20.071 49.851a18.87 18.87 0 0 0-8.941-2.238h-.036V67.99c0-.223-.002-.445-.007-.668a4.608 4.608 0 0 0-4.466-4.526c-15.805-.464-23.943-6.819-26.709-9.53a4.64 4.64 0 0 0-3.525-1.317 4.645 4.645 0 0 0-3.345 1.745c-13.325 16.758-32.7 14.812-40.408 13.198a4.611 4.611 0 0 0-3.865.938 4.559 4.559 0 0 0-1.623 2.744h-.11a18.8 18.8 0 0 0-7.792 1.667V58.416c0-21.109 17.174-38.283 38.283-38.283h11.59c6.982 0 13.577 3.768 17.211 9.832a2.504 2.504 0 0 0 3.431.859 19.937 19.937 0 0 1 10.243-2.862c11.066 0 20.07 9.003 20.07 20.069v24.781z"/><path d="M171.117 70.573c-.592 0-1.205.03-1.821.091a2.5 2.5 0 1 0 .487 4.976c.455-.045.904-.067 1.334-.067 7.718 0 13.996 6.279 13.996 13.997s-6.278 13.996-13.996 13.996c-.432 0-.873-.025-1.35-.078a2.499 2.499 0 0 0-2.759 2.212 2.502 2.502 0 0 0 2.212 2.759c.66.072 1.28.107 1.896.107 10.475 0 18.996-8.521 18.996-18.996s-8.52-18.997-18.995-18.997zM91.071 105.716c-.146-1.373-1.373-2.351-2.751-2.222-.454.049-.879.072-1.298.072-7.718 0-13.996-6.278-13.996-13.996s6.278-13.997 13.996-13.997c.412 0 .819.02 1.221.057a2.5 2.5 0 0 0 .459-4.979 18.323 18.323 0 0 0-1.68-.078c-10.475 0-18.996 8.522-18.996 18.997s8.521 18.996 18.996 18.996c.589 0 1.204-.033 1.827-.1a2.5 2.5 0 0 0 2.222-2.75zM158.078 156.043a2.498 2.498 0 0 0-3.387 1.014c-5.001 9.271-14.599 15.031-25.047 15.031-10.354 0-19.909-5.684-24.939-14.832a2.5 2.5 0 0 0-4.381 2.409c5.908 10.747 17.143 17.424 29.32 17.424 12.289 0 23.572-6.767 29.447-17.658a2.5 2.5 0 0 0-1.013-3.388zM111.645 83.5c-4.963 0-9 4.037-9 9a2.5 2.5 0 1 0 5 0c0-2.206 1.794-4 4-4s4 1.794 4 4a2.5 2.5 0 1 0 5 0c0-4.963-4.038-9-9-9zM147.645 83.5c-4.963 0-9 4.037-9 9a2.5 2.5 0 1 0 5 0c0-2.206 1.794-4 4-4s4 1.794 4 4a2.5 2.5 0 1 0 5 0c0-4.963-4.038-9-9-9zM143.476 113.604a2.502 2.502 0 0 0-3.355-1.115c-3.025 1.517-6.647 2.317-10.476 2.317s-7.451-.801-10.477-2.317a2.5 2.5 0 0 0-2.24 4.47c3.717 1.862 8.114 2.847 12.717 2.847 4.602 0 8.999-.984 12.716-2.847a2.5 2.5 0 0 0 1.115-3.355zM94.389 202H79.9c-4.001 0-7.256 3.255-7.256 7.256v4.488c0 4.001 3.255 7.256 7.256 7.256h14.488c4.001 0 7.256-3.255 7.256-7.256v-4.488c.001-4.001-3.254-7.256-7.255-7.256zm2.256 11.744A2.259 2.259 0 0 1 94.389 216H79.9a2.259 2.259 0 0 1-2.256-2.256v-4.488A2.259 2.259 0 0 1 79.9 207h14.488a2.259 2.259 0 0 1 2.256 2.256v4.488zM179.389 202H164.9c-4.001 0-7.256 3.255-7.256 7.256v4.488c0 4.001 3.255 7.256 7.256 7.256h14.488c4.001 0 7.256-3.255 7.256-7.256v-4.488c.001-4.001-3.254-7.256-7.255-7.256zm2.256 11.744a2.259 2.259 0 0 1-2.256 2.256H164.9a2.259 2.259 0 0 1-2.256-2.256v-4.488A2.259 2.259 0 0 1 164.9 207h14.488a2.259 2.259 0 0 1 2.256 2.256v4.488z"/><path d="M176.771 154h-9.253c-4.065 0-7.373 3.308-7.373 7.373v42.881a2.5 2.5 0 1 0 5 0v-42.881a2.375 2.375 0 0 1 2.373-2.373h9.253a2.376 2.376 0 0 1 2.374 2.373v43.124a2.5 2.5 0 1 0 5 0v-43.124c0-4.065-3.308-7.373-7.374-7.373zM181.645 216.005a2.5 2.5 0 0 0-2.5 2.5V252.5a2.5 2.5 0 1 0 5 0v-33.995a2.5 2.5 0 0 0-2.5-2.5zM162.645 215.826a2.5 2.5 0 0 0-2.5 2.5v34.178a2.5 2.5 0 1 0 5 0v-34.178a2.5 2.5 0 0 0-2.5-2.5zM96.645 216.005a2.5 2.5 0 0 0-2.5 2.5v34.327a2.5 2.5 0 1 0 5 0v-34.327a2.5 2.5 0 0 0-2.5-2.5zM77.645 216.005a2.5 2.5 0 0 0-2.5 2.5v34.335a2.5 2.5 0 1 0 5 0v-34.335a2.5 2.5 0 0 0-2.5-2.5zM91.771 154h-9.253c-4.065 0-7.373 3.308-7.373 7.373v43.124a2.5 2.5 0 1 0 5 0v-43.124A2.375 2.375 0 0 1 82.518 159h9.253a2.376 2.376 0 0 1 2.374 2.373v43.124a2.5 2.5 0 1 0 5 0v-43.124c0-4.065-3.308-7.373-7.374-7.373z"/><path class="st7" d="M148.874 222h-38.459c-3.036 0-5.52 2.484-5.52 5.521v20.459c0 3.036 2.484 5.521 5.52 5.521h38.459c3.036 0 5.521-2.484 5.521-5.521v-20.459c-.001-3.037-2.485-5.521-5.521-5.521z"/><path class="st3" d="M148.874 222h-38.459c-3.036 0-5.52 2.484-5.52 5.521v20.459c0 3.036 2.484 5.521 5.52 5.521h38.459c3.036 0 5.521-2.484 5.521-5.521v-20.459c-.001-3.037-2.485-5.521-5.521-5.521z"/><circle transform="rotate(-67.5 129.643 237.745)" class="st7" cx="129.644" cy="237.75" r="9.5"/><path class="st3" d="M133.104 213h-6.92c-4.725 0-8.591 3.866-8.591 8.591V222h24.102v-.409c0-4.725-3.866-8.591-8.591-8.591z"/><path d="M148.874 219.5h-38.459c-4.423 0-8.021 3.598-8.021 8.021v20.459c0 4.423 3.598 8.021 8.021 8.021h38.459c4.423 0 8.021-3.598 8.021-8.021v-20.459c0-4.423-3.598-8.021-8.021-8.021zm3.021 28.479a3.025 3.025 0 0 1-3.021 3.021h-38.459a3.025 3.025 0 0 1-3.021-3.021V227.52a3.025 3.025 0 0 1 3.021-3.021h38.459a3.025 3.025 0 0 1 3.021 3.021v20.459z"/><path d="M148.874 219.5h-38.459c-4.423 0-8.021 3.598-8.021 8.021v20.459c0 4.423 3.598 8.021 8.021 8.021a2.5 2.5 0 1 0 0-5 3.025 3.025 0 0 1-3.021-3.021v-20.459a3.025 3.025 0 0 1 3.021-3.021h38.459a3.025 3.025 0 0 1 3.021 3.021v20.459a3.025 3.025 0 0 1-3.021 3.021 2.5 2.5 0 1 0 0 5c4.423 0 8.021-3.598 8.021-8.021v-20.459c0-4.423-3.598-8.021-8.021-8.021z"/><path d="M129.645 225.75c-6.617 0-12 5.383-12 12s5.383 12 12 12 12-5.383 12-12-5.383-12-12-12zm0 19c-3.859 0-7-3.141-7-7s3.141-7 7-7 7 3.141 7 7-3.141 7-7 7zM115.645 226.375h-3a2.5 2.5 0 1 0 0 5h3a2.5 2.5 0 1 0 0-5zM133.104 210.5h-6.92c-6.116 0-11.092 4.976-11.092 11.092a2.5 2.5 0 1 0 5 0 6.098 6.098 0 0 1 6.092-6.092h6.92a6.098 6.098 0 0 1 6.091 6.092 2.5 2.5 0 1 0 5 0c0-6.116-4.975-11.092-11.091-11.092z"/><path d="m116.846 221.506-13.5-67a2.501 2.501 0 0 0-4.902.988l13.5 67a2.5 2.5 0 1 0 4.902-.988zM158.889 152.549a2.503 2.503 0 0 0-2.945 1.957l-13.5 67a2.501 2.501 0 0 0 4.902.988l13.5-67a2.502 2.502 0 0 0-1.957-2.945z"/></g></svg>